<svg xmlns="http://www.w3.org/2000/svg" viewBox="0 0 760 360" width="760" height="360" role="img" aria-label="A distribuição de placares é uma das partes saudáveis do jogo"><rect width="760" height="360" fill="#fcfcfb"/><text x="28" y="34" font-family="'Iowan Old Style','Palatino Linotype',Palatino,Georgia,serif" font-size="17" font-weight="600" fill="#1c2321">A distribuição de placares é uma das partes saudáveis do jogo</text><text x="28" y="54" font-family="'Iowan Old Style','Palatino Linotype',Palatino,Georgia,serif" font-size="12.5" fill="#4a5551">Os dez resultados mais frequentes em 300 partidas · serve de guarda-corpo</text><text x="28" y="346" font-family="ui-monospace,'SF Mono',Menlo,Consolas,monospace" font-size="9.5" fill="#8b9490">fonte: reports/a2-goleiro-n300.json</text><line x1="62" y1="250.0" x2="700" y2="250.0" stroke="#e3e7e4" stroke-width="1"/><text x="53.0" y="254.0" font-family="ui-monospace,'SF Mono',Menlo,Consolas,monospace" font-size="10.5" fill="#8b9490" text-anchor="end" font-weight="400" letter-spacing="0" opacity="1">0%</text><line x1="62" y1="211.5" x2="700" y2="211.5" stroke="#e3e7e4" stroke-width="1"/><text x="53.0" y="215.5" font-family="ui-monospace,'SF Mono',Menlo,Consolas,monospace" font-size="10.5" fill="#8b9490" text-anchor="end" font-weight="400" letter-spacing="0" opacity="1">4%</text><line x1="62" y1="173.0" x2="700" y2="173.0" stroke="#e3e7e4" stroke-width="1"/><text x="53.0" y="177.0" font-family="ui-monospace,'SF Mono',Menlo,Consolas,monospace" font-size="10.5" fill="#8b9490" text-anchor="end" font-weight="400" letter-spacing="0" opacity="1">8%</text><line x1="62" y1="134.5" x2="700" y2="134.5" stroke="#e3e7e4" stroke-width="1"/><text x="53.0" y="138.5" font-family="ui-monospace,'SF Mono',Menlo,Consolas,monospace" font-size="10.5" fill="#8b9490" text-anchor="end" font-weight="400" letter-spacing="0" opacity="1">12%</text><line x1="62" y1="96.0" x2="700" y2="96.0" stroke="#e3e7e4" stroke-width="1"/><text x="53.0" y="100.0" font-family="ui-monospace,'SF Mono',Menlo,Consolas,monospace" font-size="10.5" fill="#8b9490" text-anchor="end" font-weight="400" letter-spacing="0" opacity="1">16%</text><path d="M74.0,250.0 L74.0,111.8 Q74.0,108.8 77.0,108.8 L108.8,108.8 Q111.8,108.8 111.8,111.8 L111.8,250.0 Z" fill="#0E8A5F"/><text x="92.9" y="100.8" font-family="ui-monospace,'SF Mono',Menlo,Consolas,monospace" font-size="10.5" fill="#1c2321" text-anchor="middle" font-weight="600" letter-spacing="0" opacity="1">14.7</text><text x="92.9" y="269.0" font-family="ui-monospace,'SF Mono',Menlo,Consolas,monospace" font-size="11.5" fill="#4a5551" text-anchor="middle" font-weight="400" letter-spacing="0" opacity="1">2–1</text><path d="M137.8,250.0 L137.8,121.5 Q137.8,118.5 140.8,118.5 L172.6,118.5 Q175.6,118.5 175.6,121.5 L175.6,250.0 Z" fill="#0E8A5F"/><text x="156.7" y="110.5" font-family="ui-monospace,'SF Mono',Menlo,Consolas,monospace" font-size="10.5" fill="#1c2321" text-anchor="middle" font-weight="600" letter-spacing="0" opacity="1">13.7</text><text x="156.7" y="269.0" font-family="ui-monospace,'SF Mono',Menlo,Consolas,monospace" font-size="11.5" fill="#4a5551" text-anchor="middle" font-weight="400" letter-spacing="0" opacity="1">1–0</text><path d="M201.6,250.0 L201.6,131.1 Q201.6,128.1 204.6,128.1 L236.4,128.1 Q239.4,128.1 239.4,131.1 L239.4,250.0 Z" fill="#0E8A5F"/><text x="220.5" y="120.1" font-family="ui-monospace,'SF Mono',Menlo,Consolas,monospace" font-size="10.5" fill="#1c2321" text-anchor="middle" font-weight="600" letter-spacing="0" opacity="1">12.7</text><text x="220.5" y="269.0" font-family="ui-monospace,'SF Mono',Menlo,Consolas,monospace" font-size="11.5" fill="#4a5551" text-anchor="middle" font-weight="400" letter-spacing="0" opacity="1">2–0</text><path d="M265.4,250.0 L265.4,163.2 Q265.4,160.2 268.4,160.2 L300.2,160.2 Q303.2,160.2 303.2,163.2 L303.2,250.0 Z" fill="#0E8A5F"/><text x="284.3" y="152.2" font-family="ui-monospace,'SF Mono',Menlo,Consolas,monospace" font-size="10.5" fill="#1c2321" text-anchor="middle" font-weight="600" letter-spacing="0" opacity="1">9.3</text><text x="284.3" y="269.0" font-family="ui-monospace,'SF Mono',Menlo,Consolas,monospace" font-size="11.5" fill="#4a5551" text-anchor="middle" font-weight="400" letter-spacing="0" opacity="1">1–1</text><path d="M329.2,250.0 L329.2,179.2 Q329.2,176.2 332.2,176.2 L364.0,176.2 Q367.0,176.2 367.0,179.2 L367.0,250.0 Z" fill="#B8860B"/><text x="348.1" y="168.2" font-family="ui-monospace,'SF Mono',Menlo,Consolas,monospace" font-size="10.5" fill="#1c2321" text-anchor="middle" font-weight="600" letter-spacing="0" opacity="1">7.7</text><text x="348.1" y="269.0" font-family="ui-monospace,'SF Mono',Menlo,Consolas,monospace" font-size="11.5" fill="#4a5551" text-anchor="middle" font-weight="400" letter-spacing="0" opacity="1">0–0</text><path d="M393.0,250.0 L393.0,182.4 Q393.0,179.4 396.0,179.4 L427.8,179.4 Q430.8,179.4 430.8,182.4 L430.8,250.0 Z" fill="#0E8A5F"/><text x="411.9" y="171.4" font-family="ui-monospace,'SF Mono',Menlo,Consolas,monospace" font-size="10.5" fill="#1c2321" text-anchor="middle" font-weight="600" letter-spacing="0" opacity="1">7.3</text><text x="411.9" y="269.0" font-family="ui-monospace,'SF Mono',Menlo,Consolas,monospace" font-size="11.5" fill="#4a5551" text-anchor="middle" font-weight="400" letter-spacing="0" opacity="1">2–2</text><path d="M456.8,250.0 L456.8,185.6 Q456.8,182.6 459.8,182.6 L491.6,182.6 Q494.6,182.6 494.6,185.6 L494.6,250.0 Z" fill="#0E8A5F"/><text x="475.7" y="174.6" font-family="ui-monospace,'SF Mono',Menlo,Consolas,monospace" font-size="10.5" fill="#1c2321" text-anchor="middle" font-weight="600" letter-spacing="0" opacity="1">7.0</text><text x="475.7" y="269.0" font-family="ui-monospace,'SF Mono',Menlo,Consolas,monospace" font-size="11.5" fill="#4a5551" text-anchor="middle" font-weight="400" letter-spacing="0" opacity="1">3–1</text><path d="M520.6,250.0 L520.6,188.8 Q520.6,185.8 523.6,185.8 L555.4,185.8 Q558.4,185.8 558.4,188.8 L558.4,250.0 Z" fill="#0E8A5F"/><text x="539.5" y="177.8" font-family="ui-monospace,'SF Mono',Menlo,Consolas,monospace" font-size="10.5" fill="#1c2321" text-anchor="middle" font-weight="600" letter-spacing="0" opacity="1">6.7</text><text x="539.5" y="269.0" font-family="ui-monospace,'SF Mono',Menlo,Consolas,monospace" font-size="11.5" fill="#4a5551" text-anchor="middle" font-weight="400" letter-spacing="0" opacity="1">3–0</text><path d="M584.4,250.0 L584.4,201.7 Q584.4,198.7 587.4,198.7 L619.2,198.7 Q622.2,198.7 622.2,201.7 L622.2,250.0 Z" fill="#0E8A5F"/><text x="603.3" y="190.7" font-family="ui-monospace,'SF Mono',Menlo,Consolas,monospace" font-size="10.5" fill="#1c2321" text-anchor="middle" font-weight="600" letter-spacing="0" opacity="1">5.3</text><text x="603.3" y="269.0" font-family="ui-monospace,'SF Mono',Menlo,Consolas,monospace" font-size="11.5" fill="#4a5551" text-anchor="middle" font-weight="400" letter-spacing="0" opacity="1">3–2</text><path d="M648.2,250.0 L648.2,224.1 Q648.2,221.1 651.2,221.1 L683.0,221.1 Q686.0,221.1 686.0,224.1 L686.0,250.0 Z" fill="#0E8A5F"/><text x="667.1" y="213.1" font-family="ui-monospace,'SF Mono',Menlo,Consolas,monospace" font-size="10.5" fill="#1c2321" text-anchor="middle" font-weight="600" letter-spacing="0" opacity="1">3.0</text><text x="667.1" y="269.0" font-family="ui-monospace,'SF Mono',Menlo,Consolas,monospace" font-size="11.5" fill="#4a5551" text-anchor="middle" font-weight="400" letter-spacing="0" opacity="1">4–1</text><line x1="62" y1="250" x2="700" y2="250" stroke="#4a5551" stroke-width="1.5"/><rect x="62" y="266" width="638" height="42" rx="4" fill="#eef2ef"/><text x="78.0" y="282.0" font-family="'Iowan Old Style','Palatino Linotype',Palatino,Georgia,serif" font-size="10.5" fill="#8b9490" text-anchor="start" font-weight="400" letter-spacing="0" opacity="1">0 a 0</text><text x="78.0" y="299.0" font-family="ui-monospace,'SF Mono',Menlo,Consolas,monospace" font-size="11.5" fill="#1c2321" text-anchor="start" font-weight="600" letter-spacing="0" opacity="1">7,7%   real 7–9%</text><text x="292.0" y="282.0" font-family="'Iowan Old Style','Palatino Linotype',Palatino,Georgia,serif" font-size="10.5" fill="#8b9490" text-anchor="start" font-weight="400" letter-spacing="0" opacity="1">gols por partida</text><text x="292.0" y="299.0" font-family="ui-monospace,'SF Mono',Menlo,Consolas,monospace" font-size="11.5" fill="#1c2321" text-anchor="start" font-weight="600" letter-spacing="0" opacity="1">2,93   real 2,5–3,0</text><text x="506.0" y="282.0" font-family="'Iowan Old Style','Palatino Linotype',Palatino,Georgia,serif" font-size="10.5" fill="#8b9490" text-anchor="start" font-weight="400" letter-spacing="0" opacity="1">goleadas (4+)</text><text x="506.0" y="299.0" font-family="ui-monospace,'SF Mono',Menlo,Consolas,monospace" font-size="11.5" fill="#1c2321" text-anchor="start" font-weight="600" letter-spacing="0" opacity="1">~3%   real 2–4%</text></svg>